<svg width="16" height="21" viewBox="0 0 16 21" fill="none" xmlns="http://www.w3.org/2000/svg">
<path d="M14 4.60495H12C12 2.39495 10.21 0.60495 8 0.60495C5.79 0.60495 4 2.39495 4 4.60495H2C0.9 4.60495 0 5.50495 0 6.60495V18.6049C0 19.705 0.9 20.6049 2 20.6049H14C15.1 20.6049 16 19.705 16 18.6049V6.60495C16 5.50495 15.1 4.60495 14 4.60495ZM6 8.60495C6 9.15495 5.55 9.60495 5 9.60495C4.45 9.60495 4 9.15495 4 8.60495V6.60495H6V8.60495ZM8 2.60495C9.1 2.60495 10 3.50495 10 4.60495H6C6 3.50495 6.9 2.60495 8 2.60495ZM12 8.60495C12 9.15495 11.55 9.60495 11 9.60495C10.45 9.60495 10 9.15495 10 8.60495V6.60495H12V8.60495Z" fill="white"/>
</svg>
